<svg xmlns="http://www.w3.org/2000/svg" xmlns:xlink="http://www.w3.org/1999/xlink" x="0px" y="0px"
	 viewBox="0 0 123.49 32.79" style="enable-background:new 0 0 123.49 32.79;" xml:space="preserve">
<style type="text/css">
	.st0{fill:#252566;}
	.st1{fill:#EC008C;}
	.st2{fill:#2E3192;}
</style>
<g>
	<path class="st0" d="M14.98,0v0.54c-0.89,0.05-1.62,0.17-2.18,0.38s-1.05,0.53-1.48,0.98c-0.52,0.53-0.86,1.19-1.02,1.97
		s-0.25,2.12-0.25,4.03v13.27c0,2.16,0.08,3.71,0.25,4.68s0.5,1.85,1,2.66c0.75,1.23,1.68,2.13,2.78,2.68s2.49,0.83,4.16,0.83
		c1.62,0,3.18-0.25,4.65-0.74s2.71-1.18,3.69-2.05c0.61-0.55,1.06-1.14,1.35-1.78s0.48-1.45,0.57-2.44
		c0.06-0.64,0.09-2.16,0.09-4.55V7.36c0-1.61-0.09-2.8-0.27-3.56s-0.51-1.4-1-1.9c-0.44-0.45-0.93-0.78-1.49-0.98
		s-1.28-0.33-2.17-0.38V0h10.8v0.54c-0.89,0.05-1.61,0.17-2.17,0.38s-1.05,0.53-1.49,0.98c-0.48,0.5-0.82,1.14-1,1.91
		s-0.27,1.96-0.27,3.55v14.79c0,2.19-0.17,3.8-0.5,4.84s-1,1.99-2,2.85c-2.28,1.97-5.54,2.95-9.77,2.95c-4.42,0-7.68-0.93-9.77-2.79
		c-1.36-1.19-2.17-2.75-2.44-4.69c-0.09-0.69-0.14-1.93-0.14-3.73V7.36c0-1.61-0.09-2.8-0.26-3.56S4.16,2.4,3.66,1.9
		C3.23,1.45,2.75,1.12,2.19,0.91S0.91,0.59,0,0.54V0H14.98z"/>
	<path class="st1" d="M51.45,0v0.54c-0.89,0.05-1.61,0.17-2.17,0.38s-1.05,0.53-1.49,0.98c-0.61,0.62-0.98,1.49-1.12,2.6
		c-0.09,0.83-0.14,1.78-0.14,2.86v17.27c0,1.3,0.06,2.32,0.19,3.07s0.33,1.35,0.61,1.8c0.41,0.62,0.93,1.09,1.57,1.39
		s1.49,0.49,2.55,0.55v0.54H36.47v-0.54c0.91-0.05,1.64-0.18,2.19-0.39s1.04-0.54,1.46-0.97c0.5-0.5,0.84-1.13,1.01-1.9
		s0.26-1.95,0.26-3.56V7.36c0-1.61-0.09-2.8-0.26-3.56s-0.51-1.4-1.01-1.9c-0.42-0.45-0.91-0.78-1.48-0.98s-1.29-0.33-2.18-0.38V0
		H51.45z"/>
	<path class="st2" d="M68.39,0v0.54c-0.89,0.05-1.62,0.17-2.18,0.38s-1.05,0.53-1.48,0.98c-0.52,0.53-0.86,1.19-1.02,1.97
		s-0.25,2.12-0.25,4.03v13.27c0,2.16,0.08,3.71,0.25,4.68s0.5,1.85,1,2.66c0.75,1.23,1.68,2.13,2.78,2.68s2.49,0.83,4.16,0.83
		c1.62,0,3.18-0.25,4.65-0.74s2.71-1.18,3.69-2.05c0.61-0.55,1.06-1.14,1.35-1.78s0.48-1.45,0.57-2.44
		c0.06-0.64,0.09-2.16,0.09-4.55V7.36c0-1.61-0.09-2.8-0.27-3.56s-0.51-1.4-1-1.9c-0.44-0.45-0.93-0.78-1.49-0.98
		s-1.28-0.33-2.17-0.38V0h10.8v0.54C87,0.59,86.28,0.71,85.72,0.91s-1.05,0.53-1.49,0.98c-0.48,0.5-0.82,1.14-1,1.91
		s-0.27,1.96-0.27,3.55v14.79c0,2.19-0.17,3.8-0.5,4.84s-1,1.99-2,2.85c-2.28,1.97-5.54,2.95-9.77,2.95c-4.42,0-7.68-0.93-9.77-2.79
		c-1.36-1.19-2.17-2.75-2.44-4.69c-0.09-0.69-0.14-1.93-0.14-3.73V7.36c0-1.61-0.09-2.8-0.26-3.56s-0.51-1.4-1.01-1.9
		c-0.42-0.45-0.91-0.78-1.46-0.98s-1.29-0.33-2.19-0.38V0H68.39z"/>
	<path class="st2" d="M89.37,0h15.45v0.54c-1.08,0-1.91,0.09-2.48,0.28c-0.94,0.3-1.41,0.86-1.41,1.69c0,0.86,0.64,2.22,1.92,4.08
		l4.1,6l3.59-4.43c1.41-1.73,2.32-2.95,2.74-3.64s0.63-1.34,0.63-1.93c0-0.83-0.44-1.4-1.31-1.71c-0.41-0.16-1.12-0.27-2.13-0.33V0
		h10.76v0.54c-1.19,0-2.11,0.16-2.77,0.47c-1.02,0.47-2.37,1.77-4.05,3.89l-1.78,2.25l-5.09,6.3l8.06,11.98
		c1.42,2.12,2.71,3.66,3.87,4.62c0.59,0.48,1.18,0.83,1.75,1.03s1.33,0.33,2.29,0.38v0.54H107.2v-0.54
		c1.27-0.14,2.19-0.36,2.77-0.66c0.94-0.47,1.41-1.12,1.41-1.97c0-0.3-0.09-0.64-0.28-1.03c-0.19-0.39-0.54-0.98-1.05-1.76
		l-5.72-8.67l-5.58,6.8c-0.86,1.05-1.47,1.92-1.84,2.61s-0.55,1.34-0.55,1.93c0,0.84,0.32,1.5,0.95,1.96s1.57,0.72,2.82,0.79v0.54
		H88.73v-0.54c0.86-0.16,1.57-0.38,2.14-0.67s1.24-0.79,2-1.51c1.12-1.03,2.71-2.79,4.76-5.27l6.09-7.45l-7.27-10.9l-1.24-1.8
		c-0.91-1.33-1.67-2.19-2.3-2.58c-0.56-0.34-1.52-0.57-2.86-0.68c-0.16,0-0.39-0.02-0.7-0.05V0z"/>
</g>
</svg>
